<svg width="1366" height="93" viewBox="0 0 1366 93" fill="none" xmlns="http://www.w3.org/2000/svg">
<g filter="url(#filter0_d_43_65)">
<path fill-rule="evenodd" clip-rule="evenodd" d="M0 34.0394L8.5375 29.7106C16.1264 25.5787 32.2528 16.9213 48.3792 16.9213C65.4542 16.9213 81.5806 25.5787 97.7069 36.794C113.833 48.206 129.96 62.3727 146.086 62.3727C162.213 62.3727 179.288 48.206 195.414 48.206C211.54 48.206 227.667 62.3727 243.793 70.8333C259.919 79.294 276.046 82.2454 293.121 77.9167C309.247 73.588 325.374 62.3727 341.5 59.4213C357.626 56.6667 373.753 62.3727 389.879 62.3727C406.954 62.3727 423.081 56.6667 439.207 55.2894C455.333 53.912 471.46 56.6667 487.586 62.3727C503.713 68.0787 520.788 76.5393 536.914 75.162C553.04 73.588 569.167 62.3727 585.293 53.912C601.419 45.2546 617.546 39.7454 634.621 45.2546C650.747 50.9606 666.874 68.0787 683 63.75C699.126 59.4213 715.253 34.0394 731.379 25.5787C748.454 16.9213 764.581 25.5787 780.707 25.5787C796.833 25.5787 812.96 16.9213 829.086 16.9213C845.213 16.9213 862.288 25.5787 878.414 32.662C894.54 39.7454 910.667 45.2546 926.793 41.1227C942.919 36.794 959.046 22.6273 976.121 16.9213C992.247 11.412 1008.37 14.1667 1024.5 14.1667C1040.63 14.1667 1056.75 11.412 1072.88 19.8727C1089.95 28.3333 1106.08 48.206 1122.21 58.044C1138.33 68.0787 1154.46 68.0787 1170.59 69.456C1186.71 70.8333 1203.79 73.588 1219.91 68.0787C1236.04 62.3727 1252.17 48.206 1268.29 38.1713C1284.42 28.3333 1300.55 22.6273 1317.62 31.088C1333.75 39.7454 1349.87 62.3727 1357.46 73.588L1366 85V0H1357.46C1349.87 0 1333.75 0 1317.62 0C1300.55 0 1284.42 0 1268.29 0C1252.17 0 1236.04 0 1219.91 0C1203.79 0 1186.71 0 1170.59 0C1154.46 0 1138.33 0 1122.21 0C1106.08 0 1089.95 0 1072.88 0C1056.75 0 1040.63 0 1024.5 0C1008.37 0 992.247 0 976.121 0C959.046 0 942.919 0 926.793 0C910.667 0 894.54 0 878.414 0C862.288 0 845.213 0 829.086 0C812.96 0 796.833 0 780.707 0C764.581 0 748.454 0 731.379 0C715.253 0 699.126 0 683 0C666.874 0 650.747 0 634.621 0C617.546 0 601.419 0 585.293 0C569.167 0 553.04 0 536.914 0C520.788 0 503.713 0 487.586 0C471.46 0 455.333 0 439.207 0C423.081 0 406.954 0 389.879 0C373.753 0 357.626 0 341.5 0C325.374 0 309.247 0 293.121 0C276.046 0 259.919 0 243.793 0C227.667 0 211.54 0 195.414 0C179.288 0 162.213 0 146.086 0C129.96 0 113.833 0 97.7069 0C81.5806 0 65.4542 0 48.3792 0C32.2528 0 16.1264 0 8.5375 0H0V34.0394Z" fill="white"/>
</g>
<defs>
<filter id="filter0_d_43_65" x="-4" y="0" width="1374" height="93" filterUnits="userSpaceOnUse" color-interpolation-filters="sRGB">
<feFlood flood-opacity="0" result="BackgroundImageFix"/>
<feColorMatrix in="SourceAlpha" type="matrix" values="0 0 0 0 0 0 0 0 0 0 0 0 0 0 0 0 0 0 127 0" result="hardAlpha"/>
<feOffset dy="4"/>
<feGaussianBlur stdDeviation="2"/>
<feComposite in2="hardAlpha" operator="out"/>
<feColorMatrix type="matrix" values="0 0 0 0 0 0 0 0 0 0 0 0 0 0 0 0 0 0 0.25 0"/>
<feBlend mode="normal" in2="BackgroundImageFix" result="effect1_dropShadow_43_65"/>
<feBlend mode="normal" in="SourceGraphic" in2="effect1_dropShadow_43_65" result="shape"/>
</filter>
</defs>
</svg>
